<svg id="Layer_1" data-name="Layer 1" xmlns="http://www.w3.org/2000/svg" xmlns:xlink="http://www.w3.org/1999/xlink" viewBox="0 0 287.76 221.77" data-imageid="drone-monochromatic" imageName="Drone" class="illustrations_image" style="width: 188px;"><defs><linearGradient id="linear-gradient" x1="223.62" y1="108.67" x2="231.18" y2="29.04" gradientUnits="userSpaceOnUse"><stop offset="0.01"/><stop offset="0.13" stop-opacity="0.69"/><stop offset="0.25" stop-opacity="0.32"/><stop offset="1" stop-opacity="0"/></linearGradient></defs><title>24</title><path d="M191.48,15.05,244,20.35c11.64,1.17,23.54,2.41,34.13,7.38,15.51,7.27,27,23,28.15,40.09,1,15.16-5.36,29.3-6.13,44.24-.82,16.07,8.2,28.62,8.19,44.74a66.72,66.72,0,0,1-19.14,46.4c-17.12,17.26-42.44,23.76-66.71,25s-48.62-1.91-72.89-.6c-23,1.23-45.82,6.49-68.75,4.74s-47.23-12.55-56.3-33.69c-7.94-18.52-2.65-41.1,4.39-59.12,5.71-14.6,17.89-21.43,25.52-35.21C68.85,78.43,69.65,43.54,94.38,24c19.85-15.68,47.86-13.92,73-11.38Z" transform="translate(-20.62 -10.96)" fill="#68e1fd" opacity="0.18" style="isolation:isolate" class="target-color"/><path d="M228.09,190.21c-2.91.85-6.33,2.25-6.82,5.25-.37,2.28,1.32,4.5,3.4,5.5a16.4,16.4,0,0,0,6.79,1.11c15.29.31,31.28.47,45-6.35,3-1.49,5.8-3.28,8.81-4.7a21.07,21.07,0,0,0,4.93-2.71,5.33,5.33,0,0,0,2-5c-.49-2.19-2.88-3.52-5.13-3.59s-4.4.81-6.51,1.58a76.35,76.35,0,0,1-27.64,4.6c-3.92-.08-7.24-.84-11.05.21C237.27,187.42,232.69,188.85,228.09,190.21Z" transform="translate(-20.62 -10.96)" fill="#020202" opacity="0.03"/><polygon points="132.77 132.72 78.45 159.35 78.45 103.47 132.77 76.84 132.77 132.72" fill="#68e1fd" class="target-color"/><polygon points="107.31 118.66 52.99 145.28 52.99 89.4 107.31 62.78 107.31 118.66" fill="#68e1fd" opacity="0.35" style="isolation:isolate" class="target-color"/><polygon points="156.78 143.11 102.45 169.73 102.45 113.84 156.78 87.23 156.78 143.11" fill="#fff"/><path d="M248.5,186.68a8.81,8.81,0,0,1-.71,3.78,6.3,6.3,0,0,1-2.74,2.54,10.75,10.75,0,0,1-8,.79,1.54,1.54,0,0,1-.92-.55,1.4,1.4,0,0,1-.17-.8,6,6,0,0,1,2.1-3.77,13,13,0,0,0,2.89-3.31c1.23-2.48.32-9.08,5-8C249.83,178.22,248.6,183.92,248.5,186.68Z" transform="translate(-20.62 -10.96)" fill="#ffbaa8"/><path d="M249.15,191.16s.66,1.63-.16,2.59-9.21,6.17-14.86,2S241.8,191,241.8,191Z" transform="translate(-20.62 -10.96)" fill="#68e1fd" class="target-color"/><path d="M248.82,187.36a1.21,1.21,0,0,0-1.52.39,4.91,4.91,0,0,1-4.49,1.61c-1.84-.44-2.58-2.56-3.5-2.57s-5.8,4.15-6.07,5.93,2.22,3.1,5,3.27,9-1.73,10.2-3.18A5.93,5.93,0,0,0,248.82,187.36Z" transform="translate(-20.62 -10.96)" fill="#fff"/><path d="M264.53,189.24a9,9,0,0,1-.71,3.78,6.3,6.3,0,0,1-2.74,2.54,10.75,10.75,0,0,1-8,.79,1.55,1.55,0,0,1-.92-.56A1.35,1.35,0,0,1,252,195a6,6,0,0,1,2.1-3.77,13.17,13.17,0,0,0,2.89-3.31c1.23-2.48.32-9.09,5-8C265.85,180.78,264.63,186.48,264.53,189.24Z" transform="translate(-20.62 -10.96)" fill="#ffbaa8"/><path d="M265.17,193.71s.67,1.64-.15,2.59-9.21,6.18-14.86,2,7.66-4.74,7.66-4.74Z" transform="translate(-20.62 -10.96)" fill="#68e1fd" class="target-color"/><path d="M264.85,189.92a1.21,1.21,0,0,0-1.52.39,4.92,4.92,0,0,1-4.49,1.61c-1.84-.44-2.58-2.56-3.5-2.58s-5.8,4.15-6.07,5.94,2.21,3.1,5,3.27,9-1.74,10.19-3.19A5.88,5.88,0,0,0,264.85,189.92Z" transform="translate(-20.62 -10.96)" fill="#fff"/><path d="M267.87,120.24s.87,48-2.69,64l-9,1.11-6.25-65.74Z" transform="translate(-20.62 -10.96)" fill="#473f47"/><path d="M240,115s-4.24,25.9.91,67.5l9,1.11,6.25-65.74Z" transform="translate(-20.62 -10.96)" fill="#473f47"/><path d="M229.42,94.34c.1,1.73.66,3.25,2.16,3.75l.39.1c2.77.56,6.41-1.55,8.94-3.39a35,35,0,0,0,3-2.46V73.79l-13.48,13.8A21.11,21.11,0,0,0,229.42,94.34Z" transform="translate(-20.62 -10.96)" fill="#fff"/><path d="M240.81,94.74c0,.86-.11,1.75-.11,2.61,0,4.8,1.11,9.74-.32,14.43A5.25,5.25,0,0,0,240,115a3.94,3.94,0,0,0,2,1.93c4.22,2.31,9.1,3,13.87,3.69,3.58.5,8.67,1.56,12-.37,1.41-.82,1.89-2.35,2.34-3.88,1.44-4.86,1.86-10.08,2.24-15.12.05-.66.09-1.32.13-2,.28-4.58.37-9.18.28-13.77-.06-3.33-.32-6.93-2.5-9.44-2.9-3.35-8.49-5.57-12.74-6.35a14.38,14.38,0,0,0-4.19-.23,17.78,17.78,0,0,0-5.67,1.92c-2.11,1.05-4,1.93-5,4a28.52,28.52,0,0,0-2.35,7.6,27.41,27.41,0,0,0-.14,7.46c.13,1.21.45,2.42.56,3.63Q240.81,94.41,240.81,94.74Z" transform="translate(-20.62 -10.96)" fill="#fff"/><path d="M260.36,121.87c1.39.41,4.6-.86,5.66-1.05.64-.11,1.22-.43,1.85-.58,3.17-.79,3.55-9.71,3.86-12.11.82-6.34,2.09-12.91,2.16-19.27a21.34,21.34,0,0,0-.84-7.26,8.36,8.36,0,0,0-4.76-5.29,2.42,2.42,0,0,0-1.4-.15c-1.94.49-2.34,3.68-2.67,5.23-.5,2.37-1.35,4.82-3.41,6.29-5,3.57-13.47.92-18.89,0a2.5,2.5,0,0,0-1.46,0,1.83,1.83,0,0,0-.78,2.07,10.21,10.21,0,0,0,1,2.17c1.29,2.6.94,5.71,1.68,8.53a15.83,15.83,0,0,0,6.11,8.3,67.52,67.52,0,0,0,9.08,5.24,6.16,6.16,0,0,1,1.91,1.34,4.26,4.26,0,0,1,.92,2.88c0,.66-.84,2.69-.59,3.16A.9.9,0,0,0,260.36,121.87Z" transform="translate(-20.62 -10.96)" fill="#020202" opacity="0.1"/><path d="M250.61,65.72a3,3,0,0,0,1.95,1,10.76,10.76,0,0,0,1.88,0l.36,0a.43.43,0,0,1,.25.05.41.41,0,0,1,.11.28,20.64,20.64,0,0,1,.08,3.77h0l-.06.68a1.23,1.23,0,0,0,.06.71,1.18,1.18,0,0,0,.76.5,5.83,5.83,0,0,0,1.7.29,7.63,7.63,0,0,0,3.47-1.22,35.42,35.42,0,0,1,.34-6.43c.4-2.75,1.12-5.5.82-8.26a5.37,5.37,0,0,0-1.13-3,5.38,5.38,0,0,0-4.09-1.47,10.31,10.31,0,0,0-5.62,1.54c-.62.42-.69,1-.84,1.66-.21,1.08-.38,2.18-.5,3.28s-.22,2.5-.24,3.77A4.27,4.27,0,0,0,250.61,65.72Z" transform="translate(-20.62 -10.96)" fill="#ffbaa8"/><path d="M252.79,54.8c1.41.24,3,0,4.28.54a4.16,4.16,0,0,1,2,5.08c.54.19.63-.78,1-1.17s1.35.13,1.42.81A4.22,4.22,0,0,1,261,62a5.66,5.66,0,0,0-.25,3.76c.08.29.3.64.59.56s.5-.57.68-.79a7.74,7.74,0,0,1,.94-1c.65-.57,1.37-1.07,2-1.63,1.19-1,2.29-2.35,2.22-3.9a3.39,3.39,0,0,0-.61-1.75,4,4,0,0,0-1.15-1.13c-.19-.12-.41-.25-.45-.47a.9.9,0,0,1,.05-.36,4.23,4.23,0,0,0-1.76-4.23,10.29,10.29,0,0,0-4.52-1.68c-1-.18-2.08-.33-3.12-.45a6.9,6.9,0,0,1-2.51-.6,6.77,6.77,0,0,1,.83-1.6,8,8,0,0,0-2.1,1,3.21,3.21,0,0,1,.28-1.05,6.41,6.41,0,0,0-3.09,1.76,3.71,3.71,0,0,0-.11,4.19,5.23,5.23,0,0,0,3.48,2.12Z" transform="translate(-20.62 -10.96)" fill="#ff681c"/><path d="M254.44,66.73l.36,0a.43.43,0,0,1,.25.05.41.41,0,0,1,.11.28,20.64,20.64,0,0,1,.08,3.77h0a5.07,5.07,0,0,0,3.48-5.36,20.88,20.88,0,0,1-4.25,1.26Z" transform="translate(-20.62 -10.96)" fill="#e0a091"/><path d="M218.18,89.55A26.3,26.3,0,0,0,224.65,96a12.87,12.87,0,0,0,6.08,2.19,2,2,0,0,0,.85-.09,2.33,2.33,0,0,0,1.17-.81,6.77,6.77,0,0,0,1.56-3.85c.15-3.69-3.85-5.84-3.85-5.84s-9.12-2.91-10.2-2.43c-.6.25-1.16,1.53-1.55,2.65C218.39,88.74,218.18,89.55,218.18,89.55Z" transform="translate(-20.62 -10.96)" fill="#fff"/><rect x="256.95" y="75.53" width="13.69" height="32.23" rx="6.85" transform="translate(461.14 255.25) rotate(-160.47)" fill="#fff"/><path d="M218.18,89.55A26.3,26.3,0,0,0,224.65,96a12.87,12.87,0,0,0,6.08,2.19,2,2,0,0,0,.85-.09l.39.1c2.77.56,6.41-1.55,8.94-3.39l0-.06L240,89.2a21.83,21.83,0,0,1-5.72,4.23,8.14,8.14,0,0,1-4.89.91,4.89,4.89,0,0,1-1.32-.4,43.16,43.16,0,0,1-9.39-6.13C218.39,88.74,218.18,89.55,218.18,89.55Z" transform="translate(-20.62 -10.96)" fill="#020202" opacity="0.1"/><path d="M256.64,90.45l-15.08-8.22-5.82,6.59s19,19.16,24.6,18.4,3.24-6.7,3.24-6.7S265.69,94.14,256.64,90.45Z" transform="translate(-20.62 -10.96)" fill="#fff"/><path d="M223,73.46c-1.61.21-3.37.66-4.26,2a4.16,4.16,0,0,0-.61,1.77c-.3,2.61,1.23,5.05,2.71,7.22a6.27,6.27,0,0,0,2.31,2.32,5.83,5.83,0,0,0,1.65.38,26.43,26.43,0,0,0,12.63-1.67,1.32,1.32,0,0,0,1-1.36,8.64,8.64,0,0,0-.05-3.72,10.26,10.26,0,0,0-.91-2c-1.16-2.11-2.15-5.39-5-5.39A73.21,73.21,0,0,0,223,73.46Z" transform="translate(-20.62 -10.96)" fill="#68e1fd" class="target-color"/><path d="M222,75.78a4.61,4.61,0,0,0-3.36,1.58,3.28,3.28,0,0,0-.47,1.39c-.24,2.06,1,4,2.13,5.68a4.85,4.85,0,0,0,1.82,1.83,4.4,4.4,0,0,0,1.3.3,20.82,20.82,0,0,0,9.94-1.31,1.44,1.44,0,0,0,.52-.31,1.36,1.36,0,0,0,.28-.76,7.05,7.05,0,0,0,0-2.93,7.68,7.68,0,0,0-.72-1.57c-.91-1.67-1.69-4.25-3.94-4.25A59.92,59.92,0,0,0,222,75.78Z" transform="translate(-20.62 -10.96)" fill="url(#linear-gradient)"/><path d="M239.2,79c0-.15-.11-.3-.16-.44A4.84,4.84,0,0,0,236.91,76a5.1,5.1,0,0,0-2.85-.09l-3.77.6a1.39,1.39,0,0,0-.41.12,1.06,1.06,0,0,0-.36.4,2.82,2.82,0,0,0,.32,3.16,3.32,3.32,0,0,1,.63.77,3.91,3.91,0,0,1,.15,1.24,3.9,3.9,0,0,0,2.51,2.8,16.28,16.28,0,0,1,3.54,1.7,6,6,0,0,0,1,.72,3.49,3.49,0,0,0,1.9.18,1.37,1.37,0,0,0,.77-.23,1.29,1.29,0,0,0,.33-.62c.49-1.49.83-2.31.29-3.81-.46-1.25-1.56-2.69-1.65-4a28.25,28.25,0,0,0-.2-4.68c-.12-.55-.39-1.18-.95-1.26a1.07,1.07,0,0,0-1,.49,3.53,3.53,0,0,0-.43,1.06,2.44,2.44,0,0,1-1.05,1.57" transform="translate(-20.62 -10.96)" fill="#ffbaa8"/><path d="M223.22,82.54a4.82,4.82,0,0,1,.18,1.5,1.58,1.58,0,0,1-.76,1.24c-.62.31-1.44,0-2,.4a2.85,2.85,0,0,0-.77,1,1.13,1.13,0,0,1-1,.63,1.19,1.19,0,0,1-.56-.31,6.74,6.74,0,0,1-2-3.94,16.84,16.84,0,0,1,0-5.16c.23-1.59.79-1.38,1.87-.63s2.64.79,3.62,1.79A7.21,7.21,0,0,1,223.22,82.54Z" transform="translate(-20.62 -10.96)" fill="#ffbaa8"/><path d="M226.25,73.79l-5.11-25.73,5.93,25.73S227.6,74.31,226.25,73.79Z" transform="translate(-20.62 -10.96)" fill="#fff"/><circle cx="200.52" cy="37.67" r="1.5" fill="#ff681c"/><path d="M111.34,56.49s12.24-3.8,14.3-2.75S127,58.12,127,58.12h1.48s-.9-3.53.73-4.17,4.44-.68,5.55.11.58,4.06.58,4.06h1.26s-.16-3.64.37-3.9,5.85,1,9.58,3.48c2.62,1.75-4.78-3.87-9.38-7.34a9.9,9.9,0,0,0-7.51-1.87h0a19.13,19.13,0,0,0-5.48,1.73Z" transform="translate(-20.62 -10.96)" fill="#68e1fd" class="target-color"/><path d="M153,59.87l-1.1.64-.8.46s-12.75-9.82-18.85-10.29c-3.71-.29-14.64,3.87-19.69,5.89h0c-1.61.65-2.62,1.08-2.62,1.08l-.63-2.53s12.07-6.33,14.27-8.92a1.52,1.52,0,0,0,.29-.42c1-2.22-10.41-14.1-10.41-14.1l.43-.86.17-.32,1.24.82,0,0c3.36,2.22,12.3,8.13,13.14,8.65,1,.63,3.4,1.42,8.47,1,4.29-.34,16.7-5.71,16.7-5.71l.86.49,1.52.86s-12.51,5.3-15.2,8.4a2,2,0,0,0-.06,2.12h0C142.57,51.68,153,59.87,153,59.87Z" transform="translate(-20.62 -10.96)" fill="#fff"/><path d="M111.23,28.67S99.2,35.06,99,36.54s12.42-5.07,13.4-5a7.12,7.12,0,0,0,2.83-.26c.39-.22.6-.75,1-1.27s10.71-5.49,10.39-6.18S113.43,28,113.43,28A2.43,2.43,0,0,0,111.23,28.67Z" transform="translate(-20.62 -10.96)" fill="#68e1fd" class="target-color"/><path d="M156.6,34s10.83,8.26,10.75,9.74-11.43-7-12.42-7.07a7.1,7.1,0,0,1-2.75-.72c-.35-.28-.47-.83-.8-1.42s-9.68-7.16-9.25-7.79S154.54,33,154.54,33,156.08,33,156.6,34Z" transform="translate(-20.62 -10.96)" fill="#68e1fd" class="target-color"/><path d="M154.8,61.32s12-6.38,12.2-7.86-12.43,5.07-13.41,5a7.16,7.16,0,0,0-2.83.26c-.39.22-.6.74-1,1.27s-10.72,5.49-10.4,6.18S152.61,62,152.61,62A2.43,2.43,0,0,0,154.8,61.32Z" transform="translate(-20.62 -10.96)" fill="#68e1fd" class="target-color"/><path d="M108.12,56.6s-10.84-8.26-10.75-9.74,11.43,7,12.42,7.08a6.94,6.94,0,0,1,2.74.71c.35.28.48.84.81,1.42s9.67,7.17,9.25,7.79-12.42-6.22-12.42-6.22S108.64,57.65,108.12,56.6Z" transform="translate(-20.62 -10.96)" fill="#68e1fd" class="target-color"/><path d="M123.55,46.2a1.52,1.52,0,0,0,.29-.42c1-2.22-10.41-14.1-10.41-14.1l.43-.86,1.41.5,0,0c.58.58,9.94,9.86,10.67,11.66C126.5,44.28,124.73,45.54,123.55,46.2Z" transform="translate(-20.62 -10.96)" fill="#68e1fd" opacity="0.33" class="target-color"/><path d="M156,36.67s-12.51,5.3-15.2,8.4a2,2,0,0,0-.06,2.12c-.19-.15-2.81-2.28-.28-4.5s12.29-6.18,14-6.88Z" transform="translate(-20.62 -10.96)" fill="#68e1fd" opacity="0.33" class="target-color"/><path d="M151.88,60.51l-.8.46s-12.75-9.82-18.85-10.29c-3.71-.29-14.64,3.87-19.69,5.89h0V55.29s14.73-7.74,17.93-7.54,4.93.13,10.44,4.41C145.76,56,150.78,59.69,151.88,60.51Z" transform="translate(-20.62 -10.96)" fill="#68e1fd" opacity="0.33" class="target-color"/><rect x="104.89" y="46.39" width="12.38" height="2.37" fill="#68e1fd" class="target-color"/></svg>