<svg id="Layer_1" data-name="Layer 1" xmlns="http://www.w3.org/2000/svg" xmlns:xlink="http://www.w3.org/1999/xlink" viewBox="0 0 674.33 493.92" data-imageid="hockey-monochromatic" imageName="hockey" class="illustrations_image" style="width: 183px;"><defs><linearGradient id="linear-gradient" x1="336.46" y1="281.41" x2="334.22" y2="496.48" gradientUnits="userSpaceOnUse"><stop offset="0" stop-color="#fff" stop-opacity="0"/><stop offset="0.95" stop-color="#fff"/></linearGradient><linearGradient id="linear-gradient-2" x1="176.59" y1="353.13" x2="149.71" y2="450.03" gradientUnits="userSpaceOnUse"><stop offset="0" stop-color="#010101" stop-opacity="0"/><stop offset="0.7" stop-color="#010101" stop-opacity="0.7"/><stop offset="0.95" stop-color="#010101"/></linearGradient><linearGradient id="linear-gradient-3" x1="289.54" y1="405.87" x2="417.99" y2="-34.73" xlink:href="#linear-gradient-2"/><linearGradient id="linear-gradient-4" x1="387.38" y1="93.32" x2="302.64" y2="350.82" xlink:href="#linear-gradient"/><linearGradient id="linear-gradient-5" x1="363.66" y1="56.72" x2="360.3" y2="255.55" xlink:href="#linear-gradient"/><linearGradient id="linear-gradient-6" x1="431.57" y1="126.03" x2="421.48" y2="122.86" gradientUnits="userSpaceOnUse"><stop offset="0" stop-color="#010101" stop-opacity="0"/><stop offset="0.95" stop-color="#010101"/></linearGradient><linearGradient id="linear-gradient-7" x1="408.71" y1="192.9" x2="-15.84" y2="772.03" xlink:href="#linear-gradient-6"/><linearGradient id="linear-gradient-8" x1="376.66" y1="141.45" x2="396.86" y2="141.45" gradientUnits="userSpaceOnUse"><stop offset="0" stop-color="#e5c6d6"/><stop offset="0.42" stop-color="#ead4d0"/><stop offset="1" stop-color="#f0e9cb"/></linearGradient><linearGradient id="linear-gradient-9" x1="369.34" y1="162.62" x2="463.81" y2="49.11" xlink:href="#linear-gradient-6"/><linearGradient id="linear-gradient-10" x1="238.57" y1="137.73" x2="279.76" y2="137.73" gradientTransform="translate(168.64 -48.4) rotate(9.24)" xlink:href="#linear-gradient-8"/><linearGradient id="linear-gradient-11" x1="387.43" y1="77.49" x2="469.95" y2="230.95" xlink:href="#linear-gradient-6"/><linearGradient id="linear-gradient-12" x1="428.43" y1="396.34" x2="394.26" y2="419.58" xlink:href="#linear-gradient-2"/><linearGradient id="linear-gradient-13" x1="524.94" y1="214.57" x2="83.59" y2="551.37" xlink:href="#linear-gradient-2"/><linearGradient id="linear-gradient-14" x1="466.12" y1="223.72" x2="393.31" y2="401.82" xlink:href="#linear-gradient"/><linearGradient id="linear-gradient-15" x1="405.13" y1="251.18" x2="452.3" y2="251.18" xlink:href="#linear-gradient-8"/><linearGradient id="linear-gradient-16" x1="258.31" y1="181.47" x2="306.69" y2="181.47" xlink:href="#linear-gradient-8"/><linearGradient id="linear-gradient-17" x1="493.67" y1="435.58" x2="535.63" y2="435.58" xlink:href="#linear-gradient-2"/><linearGradient id="linear-gradient-18" x1="462.58" y1="187.26" x2="40.66" y2="326.91" xlink:href="#linear-gradient-6"/><linearGradient id="linear-gradient-19" x1="259.81" y1="133.31" x2="274.25" y2="133.31" xlink:href="#linear-gradient-6"/><linearGradient id="linear-gradient-20" x1="310.23" y1="85.54" x2="476.02" y2="315.55" xlink:href="#linear-gradient-6"/></defs><title>hockey</title><path d="M666.4,420.51c-1.27,8.56-3.22,17.79-7.24,25.31-3,5.68-7.12,10.38-13,13.16-10.06,4.74-23.59,2.75-30.79,11.22-4,4.66-4.78,11.3-8.44,16.2-4.57,6.08-12.61,8.27-20.09,9.82-146.76,30.88-298-19.17-447.93-16-32.14.68-66.44,3.3-94.13-12.93C13.94,449.16.25,412.08-.54,375.64a158.57,158.57,0,0,1,.87-20.41c4.62-42.29,22.4-81.92,32-123.33A321.29,321.29,0,0,0,38.73,126c-2.11-19.93-3.23-45.59,15-54.07,5.85-2.74,12.78-2.9,18.35-6.24C84.28,58.24,83.68,40.06,92.43,28.8c9.63-12.46,27.62-13.57,43.33-13.65,111.08-.44,222.75-4.45,333.75-1.91C552.1,15.11,614.4,78.13,643.17,152.13,676.07,236.79,680,330.72,666.4,420.51Z" transform="translate(0.58 -12.4)" fill="#68e1fd" opacity="0.24" style="isolation:isolate" class="target-color"/><path d="M671.49,375.64l-12.33,70.18c-3,5.68-7.12,10.38-13,13.16-10.06,4.74-23.59,2.75-30.79,11.22-4,4.66-4.78,11.3-8.44,16.2-4.57,6.08-12.61,8.27-20.09,9.82-146.76,30.88-298-19.17-447.93-16-32.14.68-66.44,3.3-94.13-12.93C13.94,449.16.25,412.08-.54,375.64Z" transform="translate(0.58 -12.4)" fill="#68e1fd" class="target-color"/><path d="M671.49,375.64l-12.33,70.18c-3,5.68-7.12,10.38-13,13.16-10.06,4.74-23.59,2.75-30.79,11.22-4,4.66-4.78,11.3-8.44,16.2s-9.9,7.4-16.11,8.91c-1.31.36-2.66.63-4,.91-146.76,30.88-298-19.17-447.93-16-30.39.64-62.74,3-89.55-10.46-1.55-.76-3.07-1.6-4.58-2.47C13.94,449.16.25,412.08-.54,375.64Z" transform="translate(0.58 -12.4)" fill="url(#linear-gradient)"/><path d="M590.85,495.31c-1.31.36-2.66.63-4,.91-146.76,30.88-298-19.17-447.93-16-30.39.64-62.74,3-89.55-10.46,40.94-28.37,99.42-68.87,126.27-46.35,6.05,5.09,19.74,19.33,25.9,24.27C216,459.18,236,459.9,254.44,460.1l106.74,1.19c3.58,0,7.4,0,10.54-1.67,11.22-6.13,4.34-25.3,12.93-34.73,7.84-8.59,22.8-3,30,6.09s10.94,21,19.61,28.68c10.3,9.11,25.18,10.38,38.91,11.18q25.67,1.55,51.28,3.06c4.22.24,8.75.44,12.41-1.71a11.08,11.08,0,0,0,4.14-14A220.76,220.76,0,0,1,570.8,480C571.56,480.67,580.15,487.15,590.85,495.31Z" transform="translate(0.58 -12.4)" fill="#68e1fd" opacity="0.24" style="isolation:isolate" class="target-color"/><path d="M390.9,423.05a3.43,3.43,0,0,1-1.06,2.32c-1,.72-2.44.1-3.53-.53L382,422.35a1.75,1.75,0,0,0-.9,2,4.93,4.93,0,0,0,1.16,2A55.21,55.21,0,0,0,404,442.18a59.6,59.6,0,0,0,26.62,4.1c1.8-.13,3.93-.6,4.54-2.29a.87.87,0,0,0,0-.67c-.17-.37-.66-.42-1.07-.43A43.3,43.3,0,0,1,417.27,439l.76-6.25a3.36,3.36,0,0,0-.07-1.61,2.16,2.16,0,0,0-2.94-.89,4.17,4.17,0,0,0-1.94,2.75,4.11,4.11,0,0,1-1,2.17c-.83.71-2.1.43-3.13.07a63.19,63.19,0,0,1-10.44-4.63,2.85,2.85,0,0,1-1.4-1.27,2.75,2.75,0,0,1,0-1.48,31.76,31.76,0,0,1,.77-3.48c.36-1.26.79-2.63.31-3.84a5.2,5.2,0,0,0-1.12-1.56c-.78-.83-3.55-4.36-4.8-3.33-.62.51-.59,2.68-.72,3.44Z" transform="translate(0.58 -12.4)" fill="#68e1fd" class="target-color"/><path d="M124.73,426.51a4.38,4.38,0,0,0-1.82,1.46,1.43,1.43,0,0,0,.48,2,1.79,1.79,0,0,0,.76.09c2.88-.12,5.59-1.39,8.46-1.63a29.62,29.62,0,0,1,5.4.26,42.89,42.89,0,0,0,9.34,0c10-1.21,18.89-7,27-13-.86.65-4.18.29-5.3.37l-5.67.37-11.17.69c-3.79.22-7.58.44-11.37.63-3.05.15-4.22.29-6.62,2.28A58,58,0,0,1,124.73,426.51Z" transform="translate(0.58 -12.4)" fill="#68e1fd" class="target-color"/><path d="M155,391.26c-6.61,3.08-13.68,5.87-18.57,11.29s-6.71,14.48-1.79,19.87c2.65,2.9,6.74,4.17,10.67,4.16a35.33,35.33,0,0,0,11.47-2.46,139.14,139.14,0,0,0,25.62-12c3.49-2.1,7.15-4.7,8.17-8.64.61-2.4.14-5,.79-7.37.6-2.18,2.08-4,3.13-6s1.66-4.54.48-6.47a7.27,7.27,0,0,0-3.25-2.52c-5.11-2.43-14.94-5.12-20.3-2-2.58,1.5-4.47,5-7,6.83A53.31,53.31,0,0,1,155,391.26Z" transform="translate(0.58 -12.4)" fill="#68e1fd" class="target-color"/><path d="M155,391.26c-6.61,3.08-13.68,5.87-18.57,11.29s-6.71,14.48-1.79,19.87c2.65,2.9,6.74,4.17,10.67,4.16a35.33,35.33,0,0,0,11.47-2.46,139.14,139.14,0,0,0,25.62-12c3.49-2.1,7.15-4.7,8.17-8.64.61-2.4.14-5,.79-7.37.6-2.18,2.08-4,3.13-6s1.66-4.54.48-6.47a7.27,7.27,0,0,0-3.25-2.52c-5.11-2.43-14.94-5.12-20.3-2-2.58,1.5-4.47,5-7,6.83A53.31,53.31,0,0,1,155,391.26Z" transform="translate(0.58 -12.4)" fill="url(#linear-gradient-2)"/><path d="M401.09,242.27a236.63,236.63,0,0,0,32.71,26.34c4.91,3.27,10.06,6.49,13.45,11.31s4.53,11.79,1,16.5C429.19,321.69,432,359.85,419.78,389c-.52,1.22-1.14,2.56-2.36,3.09s-2.9,0-4.24-.62l-12.39-5.58c-2.37-1.06-4.86-2.24-6.27-4.42-1.18-1.83-1.4-4.1-1.56-6.27a232.7,232.7,0,0,1,2.11-53.13c.41-2.66.85-5.5-.24-8s-3.2-3.87-5.29-5.3l-36.15-24.91c-3.39-2.34-6.94-4.74-11-5.35-5.41-.8-10.83,1.73-15.05,5.21s-7.59,7.87-11.48,11.71c-8.42,8.29-19.1,13.79-29.1,20.08-24.43,15.34-45.22,35.72-66.05,55.68-6.07,5.81-12.32,11.72-20,15.14s-17.19,3.93-24.11-.84c-2.75-1.89-5.05-4.71-5.46-8-.61-4.81,2.77-9.13,5.94-12.81l54.6-63.35c6.4-7.42,12.82-14.87,18.28-23,4.1-6.1,7.64-12.57,11.75-18.66,3.92-5.81,8.35-11.27,12.77-16.72l19.08-23.51a11.89,11.89,0,0,1,3.71-3.43c2.82-1.39,6.17-.38,9.14.63C337.79,227.31,368.49,236.19,401.09,242.27Z" transform="translate(0.58 -12.4)" fill="#68e1fd" class="target-color"/><path d="M401.09,242.27a236.63,236.63,0,0,0,32.71,26.34c4.91,3.27,10.06,6.49,13.45,11.31s4.53,11.79,1,16.5C429.19,321.69,432,359.85,419.78,389c-.52,1.22-1.14,2.56-2.36,3.09s-2.9,0-4.24-.62l-12.39-5.58c-2.37-1.06-4.86-2.24-6.27-4.42-1.18-1.83-1.4-4.1-1.56-6.27a232.7,232.7,0,0,1,2.11-53.13c.41-2.66.85-5.5-.24-8s-3.2-3.87-5.29-5.3l-36.15-24.91c-3.39-2.34-6.94-4.74-11-5.35-5.41-.8-10.83,1.73-15.05,5.21s-7.59,7.87-11.48,11.71c-8.42,8.29-19.1,13.79-29.1,20.08-24.43,15.34-45.22,35.72-66.05,55.68-6.07,5.81-12.32,11.72-20,15.14s-17.19,3.93-24.11-.84c-2.75-1.89-5.05-4.71-5.46-8-.61-4.81,2.77-9.13,5.94-12.81l54.6-63.35c6.4-7.42,12.82-14.87,18.28-23,4.1-6.1,7.64-12.57,11.75-18.66,3.92-5.81,8.35-11.27,12.77-16.72l19.08-23.51a11.89,11.89,0,0,1,3.71-3.43c2.82-1.39,6.17-.38,9.14.63C337.79,227.31,368.49,236.19,401.09,242.27Z" transform="translate(0.58 -12.4)" fill="url(#linear-gradient-3)"/><path d="M340.28,95.59c-5.67-2.43-13.29-4.44-17.16.37-1.31,1.62-1.85,3.74-3.14,5.38-3.32,4.2-9.69,3.51-15.05,3.56-14.05.13-26.73,7.94-38.59,15.5-2.26,1.44-4.71,3.13-5.37,5.73-.82,3.25,1.47,6.39,3.61,9l14.57,17.48c2.34,2.81,4.77,5.69,8,7.4,8.06,4.29,18,.08,27,1.6a225,225,0,0,0-20.38,44.18c-.71,2.14-1.41,4.4-1,6.61.62,3.06,3.23,5.26,5.75,7.1,12.7,9.26,27.1,15.93,41.76,21.61,16.64,6.45,34.85,11.76,52.15,7.33s32.31-22,27.83-39.3c-2.11,4.85.93,10.76,5.5,13.42s10.17,2.81,15.44,2.39a87.18,87.18,0,0,0,16.34-2.9,6.29,6.29,0,0,0,3.57-2,6.44,6.44,0,0,0,.83-3.74c.28-19.67-.16-40.19-9.2-57.67-9.44-18.23-27.1-30.8-45.41-40.07-10.74-5.44-19.69-5.06-30.69-7.41C364.57,108.55,351.69,100.48,340.28,95.59Z" transform="translate(0.58 -12.4)" fill="#68e1fd" class="target-color"/><path d="M462,216.3a4.84,4.84,0,0,1,0,.76,5.57,5.57,0,0,1-.79,3,6.18,6.18,0,0,1-3.59,2,83.49,83.49,0,0,1-16.31,2.9c-5.29.44-10.86.28-15.43-2.38a13.09,13.09,0,0,1-4.86-5.1c-1.07,14.29-14,27.3-28.48,31-17.31,4.41-35.53-.88-52.16-7.32-14.64-5.69-29-12.38-41.77-21.65-2.51-1.83-5.14-4-5.73-7.08-.44-2.23.24-4.49.95-6.6a225.75,225.75,0,0,1,20.37-44.2c-9-1.51-18.93,2.7-27-1.59-3.22-1.71-5.65-4.58-8-7.4-4.85-5.81-9.7-11.66-14.56-17.47-2.15-2.59-4.41-5.73-3.62-8.95a4.6,4.6,0,0,1,.52-1.31c1-1.91,3-3.27,4.85-4.46,11.86-7.52,24.55-15.36,38.59-15.48,5.37,0,11.74.64,15-3.58,1.31-1.63,1.87-3.74,3.14-5.37,3.9-4.81,11.5-2.78,17.19-.36,11.38,4.9,24.27,13,36.4,15.56,11,2.35,19.94,1.95,30.68,7.4,18.34,9.27,36,21.84,45.43,40.06C461.83,176.08,462.27,196.61,462,216.3Z" transform="translate(0.58 -12.4)" fill="url(#linear-gradient-4)"/><path d="M462,216.3a4.84,4.84,0,0,1,0,.76c-.75,2.14-2,3.9-4.22,4.29-2.78.48-5.37-1.95-6.24-4.65s-.56-5.57-.52-8.4c.08-7.79-2.27-15.35-4.85-22.71-5.81-16.83-13.73-34.3-28.89-43.65-8.51-5.29-18.58-7.44-28.4-9.5l-10.39-2.11a365.9,365.9,0,0,1-44-19.66,4.53,4.53,0,0,0-5.17-.43l-59.76,25.42c-2.74-3.58-5.45-7.16-8.07-10.82,1-1.91,3-3.27,4.85-4.46,11.86-7.52,24.55-15.36,38.59-15.48,5.37,0,11.74.64,15-3.58,1.31-1.63,1.87-3.74,3.14-5.37,3.9-4.81,11.5-2.78,17.19-.36,11.38,4.9,24.27,13,36.4,15.56,11,2.35,19.94,1.95,30.68,7.4,18.34,9.27,36,21.84,45.43,40.06C461.83,176.08,462.27,196.61,462,216.3Z" transform="translate(0.58 -12.4)" fill="url(#linear-gradient-5)"/><path d="M428,127.27a9.07,9.07,0,0,1-.58,2.79c-1.09,2.48-4.08,3.48-6.78,3.77a2.93,2.93,0,0,1-4-2.59,20,20,0,0,1,2.8-14.46,8.73,8.73,0,0,1,3.86-3.56c2.51-1,5.74-.8,5.94,2.1C429.47,119.11,428.36,123.49,428,127.27Z" transform="translate(0.58 -12.4)" fill="#68e1fd" class="target-color"/><path d="M428,127.27a9.07,9.07,0,0,1-.58,2.79c-1.09,2.48-4.08,3.48-6.78,3.77a2.93,2.93,0,0,1-4-2.59,20,20,0,0,1,2.8-14.46,8.73,8.73,0,0,1,3.86-3.56c2.51-1,5.74-.8,5.94,2.1C429.47,119.11,428.36,123.49,428,127.27Z" transform="translate(0.58 -12.4)" fill="url(#linear-gradient-6)"/><path d="M325.18,159a4.28,4.28,0,0,1,2.92,1.48,4.66,4.66,0,0,1,.28,3.42,129.45,129.45,0,0,1-9.15,29.8c-1.82,4.11-3.92,8.46-3.19,12.89.76,4.67,4.46,8.25,6.5,12.52,1.28,2.68,1.95,5.73,3.93,7.94a16,16,0,0,0,5.43,3.55,160.37,160.37,0,0,0,56.85,14.74,3.3,3.3,0,0,1-.08,3.39c3.33.66,5.89-3.63,9.28-3.56A7.73,7.73,0,0,1,402,247q12.69,9.16,24.45,19.54c3.21,2.83,6.65,6.46,6.07,10.71-.24,1.75-1.16,3.33-1.59,5.05-2.27,9.1,9.42,16.21,9.94,25.58A3.84,3.84,0,0,1,440,311a4.22,4.22,0,0,1-3.31.75c-5.68-.46-10.93-3.11-16-5.76-36.12-19-70.85-40.75-108.15-57.29-4.41-1.95-9-3.86-13.8-3.93-11.21-.14-19.85,9.32-29.74,14.59-1.78.94-4.31,1.62-5.53,0s.09-3.83,1.34-5.41c12.56-15.85,22.42-33.64,31-51.92,4.21-9,8.1-18.16,11.89-27.36C311.71,164.93,312.62,156.72,325.18,159Z" transform="translate(0.58 -12.4)" fill="url(#linear-gradient-7)"/><path d="M378.05,153c.74,2.23,2,4.55,4.25,5.3s4.76-.4,6.66-1.87a21.08,21.08,0,0,0,6.44-24.06c-2.28-5.52-10.74-12.06-14.85-4.8C376.53,134.67,375.5,145.3,378.05,153Z" transform="translate(0.58 -12.4)" fill="url(#linear-gradient-8)"/><path d="M385.54,153.72c.66,1.29,1.61,2.66,3,2.83,1.87.22,3.24-1.67,4.15-3.33a8.32,8.32,0,0,0,1.44-4.33,8.83,8.83,0,0,0-.58-2.3l-5.19-14.54c-.63-1.75-1.38-3.65-3-4.54C377.34,123.11,384,150.69,385.54,153.72Z" transform="translate(0.58 -12.4)" fill="url(#linear-gradient-9)"/><path d="M415.66,144.43c-4.34,5.47-11.36,9.39-18.22,8.08s-12-7.6-13.85-14.35-1.16-13.91-.19-20.85a18.82,18.82,0,0,1,1.94-7,12.32,12.32,0,0,1,8.33-5.5,24.76,24.76,0,0,1,10.2.49,30.88,30.88,0,0,1,13.22,6C428.12,120.49,423.43,134.65,415.66,144.43Z" transform="translate(0.58 -12.4)" fill="url(#linear-gradient-10)"/><path d="M391.28,115.19a2.87,2.87,0,0,0-1.88-.48c-.9.21-1.33,1.22-1.6,2.1a43,43,0,0,0-1.42,6.63,6.66,6.66,0,0,1-1,3.26c-1.33,1.76-4.21,1.55-5.93.16s-2.55-3.56-3.32-5.63a28.29,28.29,0,0,1-2-7.28,20,20,0,0,1,1.56-8.88,2.43,2.43,0,0,0,.25-1.55,2.92,2.92,0,0,0-.65-1c-2.21-2.67-1.52-6.64-.38-9.91A49.89,49.89,0,0,1,381,80.79c1.6-2.33,3.78-4.72,6.61-4.79,1.19,0,2.36.36,3.55.36,2.56,0,4.73-1.77,7.17-2.52,2.69-.82,5.57-.36,8.34.11a47.89,47.89,0,0,1,10.52,2.66,16.28,16.28,0,0,1,8.17,6.87c1.37,2.52,1.81,5.48,3.21,8,1.24,2.21,3.15,4,4.62,6a15.36,15.36,0,0,1,2.95,9.29c-.5,14.26-23.34,14.43-33.3,12.44A44.23,44.23,0,0,1,391.28,115.19Z" transform="translate(0.58 -12.4)" fill="#68e1fd" class="target-color"/><path d="M391.28,115.19a2.87,2.87,0,0,0-1.88-.48c-.9.21-1.33,1.22-1.6,2.1a43,43,0,0,0-1.42,6.63,6.66,6.66,0,0,1-1,3.26c-1.33,1.76-4.21,1.55-5.93.16s-2.55-3.56-3.32-5.63a28.29,28.29,0,0,1-2-7.28,20,20,0,0,1,1.56-8.88,2.43,2.43,0,0,0,.25-1.55,2.92,2.92,0,0,0-.65-1c-2.21-2.67-1.52-6.64-.38-9.91A49.89,49.89,0,0,1,381,80.79c1.6-2.33,3.78-4.72,6.61-4.79,1.19,0,2.36.36,3.55.36,2.56,0,4.73-1.77,7.17-2.52,2.69-.82,5.57-.36,8.34.11a47.89,47.89,0,0,1,10.52,2.66,16.28,16.28,0,0,1,8.17,6.87c1.37,2.52,1.81,5.48,3.21,8,1.24,2.21,3.15,4,4.62,6a15.36,15.36,0,0,1,2.95,9.29c-.5,14.26-23.34,14.43-33.3,12.44A44.23,44.23,0,0,1,391.28,115.19Z" transform="translate(0.58 -12.4)" fill="url(#linear-gradient-11)"/><path d="M389.9,396.6a32.45,32.45,0,0,0-1.86,8.56c-.21,6.34,3.39,12.35,8.24,16.46s10.82,6.6,16.78,8.8a27.34,27.34,0,0,0,8.58,2.11,10,10,0,0,0,8-3.12c2.56-3,2.27-7.68.54-11.26s-4.63-6.43-7.17-9.49-4.86-6.62-5-10.59c-.06-1.66.26-3.37-.29-4.93-.84-2.39-3.4-3.66-5.75-4.61-4-1.61-10.55-5.24-15-4.43C391.74,385,391.23,392.36,389.9,396.6Z" transform="translate(0.58 -12.4)" fill="#68e1fd" class="target-color"/><path d="M389.9,396.6a32.45,32.45,0,0,0-1.86,8.56c-.21,6.34,3.39,12.35,8.24,16.46s10.82,6.6,16.78,8.8a27.34,27.34,0,0,0,8.58,2.11,10,10,0,0,0,8-3.12c2.56-3,2.27-7.68.54-11.26s-4.63-6.43-7.17-9.49-4.86-6.62-5-10.59c-.06-1.66.26-3.37-.29-4.93-.84-2.39-3.4-3.66-5.75-4.61-4-1.61-10.55-5.24-15-4.43C391.74,385,391.23,392.36,389.9,396.6Z" transform="translate(0.58 -12.4)" fill="url(#linear-gradient-12)"/><path d="M269.13,209.46l299.28,159.7s9.39,3.79,18.42,2.08a103.69,103.69,0,0,0,15.21-4L637,348a22.18,22.18,0,0,0,1.48-8.18c0-4.93-1.78-9.64-5.8-9.77s-10,.91-10.85,1.93-34.28,22-34.28,22-10.44,5.27-19.1-.15-309.58-155-309.58-155l-.5,4.37Z" transform="translate(0.58 -12.4)" fill="#68e1fd" class="target-color"/><path d="M269.13,209.46l299.28,159.7s9.39,3.79,18.42,2.08a103.69,103.69,0,0,0,15.21-4L637,348a22.18,22.18,0,0,0,1.48-8.18c0-4.93-1.78-9.64-5.8-9.77s-10,.91-10.85,1.93-34.28,22-34.28,22-10.44,5.27-19.1-.15-309.58-155-309.58-155l-.5,4.37Z" transform="translate(0.58 -12.4)" fill="url(#linear-gradient-13)"/><path d="M266,212.16l299.28,159.7s9.38,3.8,18.41,2.09a105.18,105.18,0,0,0,15.22-4l34.91-19.3a22.13,22.13,0,0,0,1.47-8.18c0-4.93-1.78-9.64-5.8-9.77s-10,.91-10.84,1.93-34.28,22-34.28,22-10.45,5.26-19.1-.15-309.59-155-309.59-155l-.5,4.37Z" transform="translate(0.58 -12.4)" fill="#68e1fd" class="target-color"/><path d="M266,212.16l299.28,159.7s9.38,3.8,18.41,2.09a105.18,105.18,0,0,0,15.22-4l34.91-19.3a22.13,22.13,0,0,0,1.47-8.18c0-4.93-1.78-9.64-5.8-9.77s-10,.91-10.84,1.93-34.28,22-34.28,22-10.45,5.26-19.1-.15-309.59-155-309.59-155l-.5,4.37Z" transform="translate(0.58 -12.4)" fill="url(#linear-gradient-14)"/><path d="M414.53,252.8c-4.32,6.11-10.22,12.35-9.31,19.78,1,8.3,11,13.22,19.14,11.33s14.33-8.61,18.6-15.8a67.57,67.57,0,0,0,8.75-43.05,5.57,5.57,0,0,0-1-3,5.48,5.48,0,0,0-2.44-1.43c-8.2-3-20.83-5.36-24.06,4.71C421,235.18,420.89,243.8,414.53,252.8Z" transform="translate(0.58 -12.4)" fill="url(#linear-gradient-15)"/><path d="M258.53,146.64c-.66,4.72.28,9.5,1.33,14.14,4.39,19.36,10.83,38.19,17.27,57,.82,2.4,1.73,4.93,3.7,6.52s4.42,1.9,6.83,2.19c3.16.37,6.33.67,9.51.88,3,.2,6.57.1,8.44-2.29,2.41-3.09.34-7.54-1.75-10.86l-4.63-7.34a11.17,11.17,0,0,1-1.71-3.65,29,29,0,0,1-.15-3.61c-.22-3.33-2.23-6.22-3.81-9.15A39,39,0,0,1,289.2,177c-.73-5.53-.27-11.23-1.58-16.66-1.94-8-7.46-14.37-13.37-19.81-2.5-2.31-5.58-6.11-9.32-4.68S259,143,258.53,146.64Z" transform="translate(0.58 -12.4)" fill="url(#linear-gradient-16)"/><path d="M278.61,192.66c-3.39-.38-7.69-.27-9.1,2.84-.72,1.6-.34,3.47.05,5.18l4.27,18.67a20.8,20.8,0,0,0,1.88,5.64c3,5.35,9.85,6.92,15.9,7.95l8.55,1.46c3.09.53,7.1.61,8.44-2.23.64-1.37.37-3,.57-4.46s1.31-3.15,2.8-2.93c1.1.16,1.92,1.31,3,1.25a2.43,2.43,0,0,0,1.9-1.71c1.19-2.89,0-6.29-2-8.72s-4.63-4.19-7-6.23a36.25,36.25,0,0,1-6.63-7.62c-1.5-2.26-2.78-5.64-5.3-7C291.62,192.43,283.51,193.21,278.61,192.66Z" transform="translate(0.58 -12.4)" fill="#68e1fd" class="target-color"/><path d="M421.32,273.43c-3.9-1.59-7.06-4.58-10.83-6.43s-8.9-2.26-11.7.88c-1.44,1.6-2,3.8-2.44,5.89-1.13,5-2.15,10.7.75,14.94a15.31,15.31,0,0,0,4.77,4.17,44.82,44.82,0,0,0,15,5.95,18.12,18.12,0,0,0,5.29.42c5.52-.55,12.09-6.32,12-12.18C434.05,279.6,427.12,275.79,421.32,273.43Z" transform="translate(0.58 -12.4)" fill="#68e1fd" class="target-color"/><path d="M535.38,438.53c0,3-9.23,5.35-20.62,5.35s-20.63-2.39-20.63-5.35c0-1.46-1.84-10.18,1.83-11.15s13.05,5.81,18.8,5.81c6.66,0,15.32-6.78,19.1-5.5C536.53,428.59,535.38,437.31,535.38,438.53Z" transform="translate(0.58 -12.4)" fill="#68e1fd" class="target-color"/><path d="M535.38,438.53c0,3-9.23,5.35-20.62,5.35s-20.63-2.39-20.63-5.35c0-1.46-1.84-10.18,1.83-11.15s13.05,5.81,18.8,5.81c6.66,0,15.32-6.78,19.1-5.5C536.53,428.59,535.38,437.31,535.38,438.53Z" transform="translate(0.58 -12.4)" fill="url(#linear-gradient-17)"/><ellipse cx="515.34" cy="416.81" rx="20.63" ry="5.35" fill="#68e1fd" class="target-color"/><path d="M425.24,176.09l8.26,19.27a41.33,41.33,0,0,1,2.34,6.44c.68,2.76.79,5.63,1.47,8.39a21.15,21.15,0,0,0,3.14,7c-.93,1.66-3.12,2.08-5,2.05s-3.91-.35-5.62.49a16.14,16.14,0,0,1-2.51,1.37c-8,2.23-5.84-16.06-5.68-19.68a129.41,129.41,0,0,1,1.25-13.18C423.25,185.61,426.15,178.22,425.24,176.09Z" transform="translate(0.58 -12.4)" fill="url(#linear-gradient-18)"/><path d="M261,139.28s-2.61-12.48,0-13.15,13.28,14.39,13.28,14.39S266.64,131.25,261,139.28Z" transform="translate(0.58 -12.4)" fill="#68e1fd" class="target-color"/><path d="M261,139.28s-2.61-12.48,0-13.15,13.28,14.39,13.28,14.39S266.64,131.25,261,139.28Z" transform="translate(0.58 -12.4)" fill="url(#linear-gradient-19)"/><path d="M324.91,114.76l4.21,9.86c2.13-2.42,2.25-6,2.26-9.18v-7.68a16.3,16.3,0,0,0-1-6.85,5,5,0,0,0-2.53-2.67c-2.95-1.18-9.42,2.49-9.5,5.85C318.33,106.61,323.72,112,324.91,114.76Z" transform="translate(0.58 -12.4)" fill="url(#linear-gradient-20)"/></svg>